<svg width="49" height="49" viewBox="0 0 49 49" fill="none" xmlns="http://www.w3.org/2000/svg">
<path fill-rule="evenodd" clip-rule="evenodd" d="M6.12663 0H42.876C44.4994 0.004012 46.0551 0.650927 47.2028 1.79921C48.3504 2.94748 48.9967 4.50363 49 6.12721V42.8753C48.996 44.4984 48.3495 46.0539 47.2019 47.2017C46.0543 48.3494 44.499 48.996 42.876 49H6.12663C4.50323 48.9967 2.94718 48.3504 1.79902 47.2026C0.65086 46.0548 0.00401159 44.4989 0 42.8753V6.12721C0.00334331 4.5032 0.649938 2.94667 1.79817 1.79832C2.9464 0.649967 4.50279 0.00334366 6.12663 0ZM20.8294 46.5678V31.8661H17.155C16.8299 31.8661 16.5181 31.7371 16.288 31.5074C16.0579 31.2778 15.9283 30.9662 15.9276 30.6411V25.7388C15.9283 25.4137 16.0579 25.1022 16.288 24.8725C16.5181 24.6429 16.8299 24.5139 17.155 24.5139H20.8294V17.1744C20.8374 15.2303 21.6131 13.3681 22.9877 11.9935C24.3622 10.6188 26.2242 9.84292 28.1681 9.83493H35.5068C35.8317 9.83493 36.1433 9.96398 36.373 10.1937C36.6026 10.4234 36.7317 10.735 36.7317 11.0599V15.9621C36.7317 16.287 36.6026 16.5986 36.373 16.8283C36.1433 17.058 35.8317 17.1871 35.5068 17.1871H29.3803C29.0548 17.1873 28.7426 17.3165 28.5123 17.5464C28.3973 17.6588 28.3061 17.7931 28.244 17.9413C28.1818 18.0895 28.15 18.2487 28.1504 18.4095V24.5367H33.0496C33.3745 24.5367 33.686 24.6657 33.9157 24.8955C34.1454 25.1252 34.2744 25.4368 34.2744 25.7616V30.6639C34.2744 30.9888 34.1454 31.3003 33.9157 31.5301C33.686 31.7598 33.3745 31.8888 33.0496 31.8888H28.1504V46.5906H42.8532C43.8265 46.5873 44.7589 46.199 45.4468 45.5105C46.1348 44.8219 46.5224 43.8892 46.5251 42.9158V6.12721C46.5231 5.15341 46.1357 4.22 45.4477 3.53095C44.7596 2.84189 43.8269 2.45322 42.8532 2.44988H6.12663C5.15291 2.45388 4.22023 2.84267 3.53193 3.53151C2.84364 4.22035 2.45554 5.15338 2.45221 6.12721V42.8753C2.45621 43.8487 2.84456 44.7811 3.53278 45.4694C4.22101 46.1577 5.15334 46.5461 6.12663 46.5501L20.8294 46.5678ZM25.7287 46.5678V30.6411C25.7287 30.316 25.8576 30.0042 26.0872 29.7741C26.3168 29.5439 26.6283 29.4143 26.9534 29.4137H31.8552V26.9638H26.9534C26.6286 26.9638 26.3171 26.8347 26.0874 26.605C25.8577 26.3753 25.7287 26.0637 25.7287 25.7388V18.3993C25.7289 17.9167 25.8245 17.4388 26.0099 16.9932C26.1954 16.5476 26.467 16.143 26.8092 15.8027C27.1487 15.4607 27.5523 15.1892 27.997 15.0037C28.4417 14.8183 28.9187 14.7225 29.4005 14.722H34.2998V12.2519H28.1757C26.8771 12.2566 25.6331 12.7745 24.7148 13.6929C23.7966 14.6112 23.2786 15.8554 23.274 17.1542V25.7313C23.274 26.0561 23.1449 26.3677 22.9152 26.5974C22.6855 26.8271 22.374 26.9562 22.0491 26.9562H18.3797V29.4061H22.0542C22.3792 29.4067 22.6908 29.5363 22.9204 29.7665C23.15 29.9966 23.279 30.3084 23.279 30.6335V46.5602L25.7287 46.5678Z" fill="#2C9E56"/>
</svg>
