<svg width="39" height="49" viewBox="0 0 39 49" fill="none" xmlns="http://www.w3.org/2000/svg">
<path fill-rule="evenodd" clip-rule="evenodd" d="M15.4637 41.5184C16.8841 43.0957 18.2661 44.6441 19.5 46.0578C20.7338 44.6369 22.1302 43.0957 23.5362 41.5184C27.0919 37.7159 30.4366 33.7194 33.5552 29.547C35.5935 26.637 36.6868 23.1643 36.6853 19.6049C36.7121 17.3193 36.2876 15.051 35.4362 12.9316C34.5849 10.8121 33.3238 8.88364 31.7259 7.25783C30.128 5.63203 28.225 4.34125 26.1274 3.46029C24.0298 2.57934 21.7792 2.1257 19.506 2.1257C17.2327 2.1257 14.9821 2.57934 12.8845 3.46029C10.7869 4.34125 8.88395 5.63203 7.28604 7.25783C5.68813 8.88364 4.42698 10.8121 3.57567 12.9316C2.72436 15.051 2.29978 17.3193 2.3266 19.6049C2.32106 21.3659 2.58729 23.1171 3.11572 24.796C3.64983 26.4915 4.43933 28.0946 5.45669 29.5494C8.57196 33.7216 11.9143 37.7174 15.4685 41.5184H15.4637ZM12.4102 12.4712C14.0508 10.8207 16.2097 9.79337 18.5191 9.56409C20.8286 9.3348 23.1456 9.91778 25.0755 11.2137C27.0054 12.5096 28.4288 14.4383 29.103 16.6711C29.7773 18.904 29.6607 21.3028 28.7732 23.4589C27.8857 25.615 26.2822 27.395 24.2359 28.4956C22.1896 29.5962 19.827 29.9493 17.5508 29.4948C15.2746 29.0402 13.2255 27.8061 11.7528 26.0028C10.28 24.1995 9.47459 21.9384 9.47383 19.6049C9.47222 18.28 9.73075 16.9679 10.2346 15.7437C10.7385 14.5195 11.4779 13.4074 12.4102 12.4712ZM19.5 11.8508C21.0236 11.8527 22.5125 12.3087 23.7785 13.1612C25.0445 14.0136 26.0308 15.2243 26.6128 16.6401C27.1947 18.056 27.3463 19.6136 27.0483 21.1161C26.7502 22.6185 26.0159 23.9984 24.9382 25.0814C23.8605 26.1644 22.4877 26.9019 20.9934 27.2006C19.499 27.4994 17.95 27.3461 16.5422 26.76C15.1345 26.1739 13.9311 25.1814 13.0841 23.9079C12.2372 22.6344 11.7846 21.137 11.7837 19.6049C11.7831 18.5867 11.982 17.5783 12.3692 16.6374C12.7563 15.6965 13.3241 14.8415 14.0401 14.1214C14.756 13.4013 15.6061 12.8301 16.5417 12.4405C17.4773 12.0509 18.4802 11.8505 19.4928 11.8508H19.5ZM18.6128 48.5728C17.1016 46.8008 15.4541 44.9663 13.754 43.0692C10.1323 39.2017 6.72758 35.1345 3.55568 30.8863C2.4056 29.236 1.51068 27.4202 0.901442 25.5005C0.056449 22.804 -0.198607 19.9557 0.153692 17.1508C0.50599 14.3459 1.45737 11.6508 2.94256 9.2503C4.42775 6.84975 6.41161 4.80055 8.75819 3.24318C11.1048 1.6858 13.7585 0.657109 16.5375 0.227601C19.3165 -0.201906 22.155 -0.0220702 24.8584 0.754806C27.5617 1.53168 30.0661 2.88721 32.1997 4.72845C34.3333 6.56969 36.0456 8.85311 37.2194 11.4221C38.3932 13.9911 39.0006 16.785 38.9999 19.6122C39.01 23.6514 37.7707 27.5938 35.4538 30.8935C32.2795 35.1426 28.8732 39.2114 25.2507 43.0812C23.5554 44.9735 21.9031 46.8152 20.3871 48.5921C20.2889 48.7086 20.1686 48.8044 20.0333 48.8738C19.898 48.9433 19.7503 48.985 19.5989 48.9966C19.4474 49.0083 19.2952 48.9896 19.1509 48.9416C19.0067 48.8936 18.8734 48.8173 18.7587 48.7171C18.7067 48.6777 18.6601 48.6316 18.62 48.5801L18.6128 48.5728Z" fill="#2C9E56"/>
</svg>
