<svg width="49" height="49" viewBox="0 0 49 49" fill="none" xmlns="http://www.w3.org/2000/svg">
<path fill-rule="evenodd" clip-rule="evenodd" d="M12.8623 0H36.1377C39.5452 0.0106727 42.8103 1.36902 45.2201 3.77856C47.6298 6.18809 48.9887 9.45314 49 12.861V36.139C48.9887 39.5469 47.6298 42.8119 45.2201 45.2214C42.8103 47.631 39.5452 48.9893 36.1377 49H12.8623C9.45478 48.9893 6.18968 47.631 3.77993 45.2214C1.37018 42.8119 0.0113419 39.5469 0 36.139V12.861C0.0113419 9.45314 1.37018 6.18809 3.77993 3.77856C6.18968 1.36902 9.45478 0.0106727 12.8623 0ZM37.9695 14.7005C38.82 14.701 39.6442 14.4066 40.3019 13.8673C40.9597 13.3281 41.4101 12.5775 41.5765 11.7433C41.7429 10.9092 41.6149 10.0431 41.2144 9.29277C40.8139 8.54242 40.1657 7.95418 39.3801 7.62829C38.5945 7.30239 37.7202 7.25899 36.9062 7.50551C36.0922 7.75203 35.3889 8.2732 34.9161 8.98022C34.4433 9.68723 34.2301 10.5363 34.3131 11.3829C34.3961 12.2294 34.77 13.0209 35.3711 13.6226C35.7117 13.9649 36.1167 14.2363 36.5626 14.4213C37.0086 14.6063 37.4867 14.7012 37.9695 14.7005ZM37.1042 11.8894C37.3043 12.089 37.5674 12.213 37.8487 12.2403C38.1301 12.2676 38.4123 12.1966 38.6471 12.0393C38.8819 11.882 39.0548 11.6481 39.1366 11.3775C39.2183 11.1069 39.2039 10.8164 39.0955 10.5553C38.9871 10.2943 38.7916 10.0789 38.5422 9.94578C38.2929 9.8127 38.005 9.77018 37.7278 9.82546C37.4507 9.88074 37.2012 10.0304 37.022 10.249C36.8428 10.4675 36.7449 10.7415 36.745 11.0241C36.7449 11.1849 36.7764 11.3442 36.8381 11.4927C36.8997 11.6412 36.9902 11.776 37.1042 11.8894ZM24.4975 12.2487C21.6627 12.2481 18.9152 13.2307 16.7235 15.0289C14.5318 16.8271 13.0316 19.3298 12.4781 22.1104C11.9247 24.891 12.3525 27.7776 13.6886 30.2781C15.0248 32.7786 17.1866 34.7383 19.8056 35.8234C22.4247 36.9085 25.3389 37.0517 28.0517 36.2287C30.7645 35.4056 33.1079 33.6673 34.6828 31.3099C36.2576 28.9524 36.9664 26.1218 36.6883 23.3003C36.4102 20.4788 35.1623 17.8411 33.1575 15.8366C32.0215 14.6975 30.6716 13.7941 29.1854 13.1784C27.6993 12.5627 26.1062 12.2467 24.4975 12.2487ZM31.4269 17.5622C29.8236 15.9575 27.7136 14.9586 25.4563 14.7356C23.199 14.5125 20.9344 15.0792 19.0481 16.339C17.1618 17.5988 15.7706 19.4738 15.1117 21.6445C14.4528 23.8152 14.5669 26.1472 15.4346 28.2432C16.3023 30.3391 17.8697 32.0693 19.87 33.1389C21.8703 34.2085 24.1796 34.5513 26.4043 34.1089C28.629 33.6665 30.6315 32.4663 32.0705 30.7127C33.5095 28.9592 34.296 26.7609 34.296 24.4924C34.2977 23.2052 34.0451 21.9303 33.5528 20.741C33.0604 19.5517 32.338 18.4714 31.4269 17.5622ZM36.1327 2.44166H12.8572C10.099 2.45166 7.45646 3.55173 5.50583 5.50209C3.55521 7.45245 2.4546 10.0949 2.44393 12.8535V36.1314C2.45393 38.8901 3.55445 41.533 5.50522 43.4835C7.45598 45.434 10.0988 46.5339 12.8572 46.5432H36.1327C38.8912 46.5339 41.534 45.434 43.4847 43.4835C45.4355 41.533 46.5359 38.8901 46.5459 36.1314V12.8535C46.5352 10.0949 45.4346 7.45245 43.484 5.50209C41.5334 3.55173 38.891 2.45166 36.1327 2.44166Z" fill="#2C9E56"/>
</svg>
