<svg width="49" height="49" viewBox="0 0 49 49" fill="none" xmlns="http://www.w3.org/2000/svg">
<path fill-rule="evenodd" clip-rule="evenodd" d="M7.17763 7.17419C11.186 3.16661 16.4599 0.672841 22.1008 0.117787C27.7417 -0.437267 33.4006 0.980799 38.1132 4.13024C42.8258 7.27968 46.3006 11.9656 47.9456 17.3898C49.5906 22.814 49.3038 28.6408 47.1344 33.8773C44.9649 39.1139 41.0469 43.4361 36.0479 46.1078C31.0489 48.7794 25.2782 49.635 19.719 48.5289C14.1599 47.4229 9.15615 44.4234 5.56052 40.0417C1.96489 35.6601 -0.000193552 30.1672 1.92834e-05 24.4991C-0.00402453 21.2808 0.627974 18.0935 1.85975 15.1203C3.09153 12.1471 4.8988 9.44666 7.17763 7.17419ZM35.0719 8.66667C34.0353 7.97574 32.9343 7.38656 31.7844 6.90727L31.7234 6.88182C28.2617 5.46411 24.4593 5.09711 20.7904 5.82664C19.571 6.06801 18.3787 6.43003 17.2309 6.90727C16.0815 7.38603 14.9813 7.97524 13.9459 8.66667C12.9081 9.36253 11.9392 10.156 11.0524 11.0363C10.1704 11.9206 9.37683 12.8888 8.68284 13.9272C7.99237 14.9637 7.4023 16.0636 6.92079 17.2121C6.4477 18.3612 6.08672 19.5533 5.8428 20.7718C5.10942 24.46 5.48449 28.2827 6.92079 31.7581C7.88258 34.0699 9.28598 36.172 11.0524 37.9466L11.1211 38.0102C11.9896 38.8671 12.9371 39.6401 13.951 40.3188C14.986 41.011 16.0862 41.6002 17.2359 42.0782C18.3829 42.5572 19.5755 42.9184 20.7955 43.1563C23.2494 43.6377 25.7735 43.6377 28.2274 43.1563C29.4468 42.9163 30.6392 42.5551 31.7869 42.0782C34.097 41.1187 36.1962 39.715 37.9654 37.9466C38.8486 37.0635 39.6424 36.0951 40.335 35.0557C41.0288 34.0133 41.6205 32.9064 42.102 31.7505C42.5761 30.6016 42.9381 29.4095 43.1827 28.1909C43.6607 25.7367 43.6607 23.2133 43.1827 20.759C42.9378 19.5405 42.5759 18.3484 42.102 17.1994L42.0665 17.1359C41.1054 14.8513 39.713 12.7735 37.9654 11.016C37.0797 10.1355 36.1117 9.34198 35.0745 8.64635L35.0719 8.66667ZM36.2186 12.7805C35.4528 12.0067 34.6112 11.3116 33.7065 10.7058C32.8036 10.1048 31.8439 9.59387 30.8411 9.18026L30.7852 9.15232C27.7657 7.93195 24.4564 7.61658 21.2608 8.24465C20.1998 8.44986 19.1623 8.76162 18.164 9.17521C17.1642 9.59153 16.2064 10.1023 15.3036 10.7007C14.3971 11.3081 13.5523 12.003 12.7814 12.7754C12.0131 13.547 11.3208 14.3907 10.7143 15.2951C10.1107 16.1929 9.59968 17.1496 9.18882 18.1504C8.77318 19.1491 8.45721 20.1864 8.24553 21.2472C7.82516 23.3888 7.82516 25.5916 8.24553 27.7332C8.45739 28.7956 8.77335 29.8346 9.18882 30.8351C9.59805 31.8375 10.1092 32.7952 10.7143 33.693C11.323 34.5971 12.0169 35.4408 12.7865 36.2126L12.845 36.2685C13.599 37.0173 14.4241 37.6909 15.3087 38.2797C16.2085 38.8834 17.1648 39.3986 18.164 39.818C21.2006 41.0575 24.5337 41.381 27.7519 40.7485C28.8094 40.539 29.8439 40.2273 30.8411 39.818C31.8447 39.401 32.8045 38.8857 33.7065 38.2797C34.6123 37.6782 35.454 36.9856 36.2186 36.2126C36.9911 35.4428 37.6861 34.5989 38.2933 33.693C38.8954 32.7934 39.4065 31.836 39.8189 30.8351C40.2358 29.8391 40.5502 28.8031 40.7571 27.7434C41.174 25.5997 41.174 23.3959 40.7571 21.2523C40.5495 20.1911 40.2352 19.1535 39.8189 18.1554L39.7985 18.0995C38.9618 16.1082 37.744 14.2996 36.2136 12.7754L36.2186 12.7805ZM23.1118 28.1324L23.8745 27.3696L25.367 38.0763C25.4118 38.399 25.5831 38.6906 25.8429 38.887C26.1028 39.0835 26.43 39.1687 26.7527 39.1238C27.0754 39.079 27.367 38.9078 27.5635 38.648C27.7599 38.3881 27.8451 38.0608 27.8002 37.7381L26.2569 26.6628C26.4591 26.5916 26.6392 26.4689 26.7794 26.3067C26.9196 26.1445 27.0149 25.9484 27.056 25.738C27.0971 25.5276 27.0825 25.3101 27.0137 25.1071C26.9449 24.9041 26.8243 24.7225 26.6637 24.5805L35.2042 16.04C35.4354 15.8098 35.5658 15.4971 35.5665 15.1707C35.5672 14.8443 35.4382 14.531 35.208 14.2997C34.9777 14.0684 34.6649 13.9381 34.3385 13.9374C34.0121 13.9366 33.6989 14.0656 33.4676 14.2958L25.6289 22.1295L25.4357 20.7183C25.4135 20.5585 25.36 20.4047 25.2784 20.2656C25.1967 20.1265 25.0885 20.0049 24.9598 19.9076C24.8311 19.8104 24.6846 19.7394 24.5284 19.6987C24.3723 19.6581 24.2097 19.6486 24.0499 19.6708C23.8902 19.693 23.7364 19.7464 23.5973 19.8281C23.4582 19.9097 23.3365 20.018 23.2393 20.1467C23.142 20.2754 23.071 20.4219 23.0304 20.578C22.9897 20.7341 22.9802 20.8968 23.0024 21.0565L23.1219 21.9235L17.5487 17.7639C17.2871 17.5687 16.9586 17.4854 16.6355 17.5324C16.3125 17.5793 16.0213 17.7527 15.8261 18.0144C15.6309 18.276 15.5476 18.6044 15.5945 18.9275C15.6415 19.2505 15.8149 19.5417 16.0765 19.7369L22.916 24.8449L21.3905 26.3857C21.2759 26.4997 21.185 26.6352 21.1228 26.7843C21.0607 26.9335 21.0285 27.0935 21.0281 27.2551C21.0274 27.5815 21.1564 27.8948 21.3867 28.126C21.6169 28.3573 21.9297 28.4877 22.2561 28.4884C22.5825 28.4891 22.8958 28.3601 23.1271 28.1299L23.1118 28.1324ZM24.5 2.45269C19.3999 2.45256 14.4576 4.22086 10.5152 7.45623C6.57274 10.6916 3.87408 15.1939 2.87909 20.196C1.88409 25.198 2.65432 30.3902 5.0585 34.8881C7.46268 39.3859 11.3521 42.9109 16.064 44.8626C20.7758 46.8142 26.0186 47.0717 30.899 45.5911C35.7794 44.1105 39.9954 40.9834 42.8287 36.7428C45.662 32.5021 46.9372 27.4103 46.437 22.3348C45.9369 17.2593 43.6923 12.5143 40.0858 8.90822C38.0412 6.85858 35.6118 5.23312 32.9371 4.12527C30.2623 3.01743 27.395 2.44903 24.5 2.45269Z" fill="#2C9E56"/>
</svg>
