<svg width="49" height="49" viewBox="0 0 49 49" fill="none" xmlns="http://www.w3.org/2000/svg">
<path fill-rule="evenodd" clip-rule="evenodd" d="M12.7065 43.1307C17.3089 46.0497 22.8264 47.1683 28.2022 46.2722C33.578 45.3761 38.4342 42.5282 41.8411 38.274C45.248 34.0198 46.966 28.6583 46.6661 23.2161C46.3662 17.7739 44.0695 12.6336 40.2158 8.77959C36.3621 4.92555 31.2223 2.62864 25.7806 2.32872C20.3389 2.0288 14.9778 3.74696 10.724 7.15415C6.47011 10.5613 3.62255 15.4181 2.7265 20.7944C1.83045 26.1706 2.94887 31.6885 5.86769 36.2914C5.97478 36.4595 6.03917 36.6513 6.05506 36.85C6.07096 37.0487 6.0379 37.2482 5.95891 37.4312L3.15241 45.8537L11.6756 43.0116C11.8471 42.9549 12.0289 42.937 12.2081 42.9593C12.3872 42.9817 12.5593 43.0437 12.7116 43.1408L12.7065 43.1307ZM17.8761 31.1137C15.6687 28.8832 13.7258 26.4055 12.0859 23.7298C10.8183 21.8706 10.0347 19.7244 9.80628 17.4858C9.90451 15.621 10.6664 13.8528 11.9542 12.5006C13.1343 11.0073 14.8441 10.0257 16.7287 9.75984C17.1172 9.75694 17.4982 9.86694 17.8254 10.0765C18.1459 10.2928 18.4036 10.5898 18.5725 10.9377L21.3967 16.5865C21.54 16.8584 21.6092 17.1634 21.5969 17.4705C21.5807 17.8016 21.4405 18.1145 21.2042 18.347L20.1429 19.4083C20.5622 20.3021 21.0715 21.1508 21.6627 21.9414C23.188 23.9937 25.0056 25.8115 27.0577 27.3369C27.8485 27.9278 28.6971 28.437 29.5906 28.8568L30.6519 27.7954C30.8847 27.5581 31.1987 27.4178 31.5308 27.4028C31.8379 27.3903 32.1429 27.4594 32.4147 27.6029L38.0605 30.4273C38.4108 30.5982 38.7083 30.8608 38.9216 31.1872C39.1332 31.5136 39.2443 31.895 39.2408 32.284C38.9749 34.1688 37.9934 35.8787 36.5002 37.0589C35.148 38.3466 33.38 39.1085 31.5154 39.2069C29.277 38.9784 27.1311 38.1948 25.272 36.9272C22.596 35.2858 20.1178 33.342 17.8861 31.134L17.8761 31.1137ZM36.7485 32.5196C36.3487 33.5564 35.7017 34.4798 34.864 35.2097C33.9536 36.0911 32.7677 36.6323 31.5054 36.7422C29.7221 36.47 28.021 35.8075 26.5233 34.8019C21.478 31.7447 17.2462 27.5134 14.1882 22.4683C13.1846 20.9698 12.523 19.2687 12.2506 17.4858C12.356 16.2247 12.8926 15.0385 13.7702 14.1269C14.5005 13.2895 15.4238 12.6426 16.4602 12.2422L18.9145 17.1488L17.1922 18.8688L17.8837 20.4115C18.3714 21.46 18.9655 22.4556 19.6567 23.3828C20.4882 24.5135 21.4062 25.5781 22.4023 26.5669C23.3929 27.561 24.4572 28.4789 25.5862 29.3127C26.512 30.0043 27.5068 30.5985 28.5547 31.0859L30.097 31.7774L31.8169 30.0574L36.7256 32.512L36.7485 32.5196ZM17.6785 48.0347C15.6473 47.4437 13.7011 46.5923 11.8884 45.5017L1.59735 48.9315C1.35077 49.0139 1.08394 49.0139 0.837362 48.9315C0.685102 48.8816 0.544192 48.8021 0.422741 48.6976C0.30129 48.5931 0.201811 48.4657 0.129786 48.3225C0.0577598 48.1794 0.0147337 48.0235 0.00317314 47.8637C-0.00838744 47.7039 0.011706 47.5433 0.0623826 47.3913L3.49189 37.0994C0.557124 32.2047 -0.576884 26.4389 0.285616 20.7972C1.14812 15.1555 3.95301 9.99192 8.21613 6.19779C12.4793 2.40366 17.9331 0.217022 23.6363 0.0153157C29.3395 -0.186391 34.9342 1.60948 39.4546 5.09296C43.9751 8.57644 47.1376 13.529 48.3965 19.0956C49.6553 24.6623 48.9315 30.4938 46.3498 35.5836C43.7681 40.6735 39.4906 44.7022 34.2556 46.9745C29.0207 49.2467 23.1566 49.62 17.6759 48.0297L17.6785 48.0347Z" fill="#2C9E56"/>
</svg>
